<svg width="103" height="45" viewBox="0 0 103 45" fill="none" xmlns="http://www.w3.org/2000/svg">
<path d="M43.8783 10.7664C41.095 10.5924 35.7602 15.3327 33.4406 17.7247C27.4246 15.4052 17.3059 13.4628 24.9602 24.2483C34.5279 37.7302 40.3816 44.4284 52.5762 44.4284C67.8309 44.4284 80.6271 24.2483 81.4969 21.8563C82.1927 19.9428 77.5828 19.1745 75.1909 19.0295C71.7842 16.2751 64.1879 10.7664 61.0567 10.7664C57.1426 10.7664 54.5332 14.6805 52.5762 14.6805C50.6191 14.6805 47.3574 10.9839 43.8783 10.7664Z" fill="#E22525"/>
<path d="M53.3615 36.7797C44.5022 38.0453 28.0489 23.5961 20.9297 16.2134C39.8754 22.2011 69.2853 20.4005 83.4201 16.2134C80.256 22.5416 64.4357 35.1978 53.3615 36.7797Z" fill="white" stroke="#383434" stroke-width="4.24724" stroke-linejoin="round"/>
</svg>
