<svg width="105" height="22" viewBox="0 0 105 22" fill="none" xmlns="http://www.w3.org/2000/svg">
<path d="M9.16284 17.724C15.6565 14.4908 23.0416 9.72349 39.8541 17.1318C40.007 17.1991 40.1924 17.1766 40.3046 17.0503C41.0737 16.1844 42.6371 13.4958 41.8391 12.251C32.7523 5.6369 13.4607 6.17678 8.61174 17.2268C8.45834 17.5763 8.81751 17.896 9.16284 17.724Z" fill="#383434"/>
<path d="M96.424 17.5947C89.9387 14.4425 83.3477 9.03949 66.7282 16.8356C66.5769 16.9065 66.39 16.8887 66.2739 16.7661C65.5053 15.9546 64.0182 13.5401 64.8618 12.1189C73.0644 5.24733 91.8784 6.1154 96.962 17.0909C97.1224 17.4372 96.771 17.7633 96.424 17.5947Z" fill="#383434"/>
</svg>
