<svg width="295" height="216" viewBox="0 0 295 216" fill="none" xmlns="http://www.w3.org/2000/svg">
<path d="M81.0087 2.98801H214.049C218.836 2.98801 222.932 6.30444 223.892 10.962C227.34 27.697 234.292 61.7862 239.856 91.3446C242.64 106.13 245.069 119.748 246.541 129.484C247.275 134.342 247.759 138.156 247.937 140.651C247.824 140.642 247.708 140.635 247.591 140.627C245.818 140.514 243.421 140.45 240.518 140.424C234.701 140.373 226.687 140.476 217.229 140.679C198.443 141.083 173.843 141.888 149.181 142.695L148.638 142.713C123.781 143.527 98.903 144.339 79.8326 144.746C70.2941 144.949 62.2363 145.05 56.3716 144.999C53.4343 144.974 51.0853 144.911 49.3904 144.808C48.8692 144.776 48.4267 144.741 48.059 144.705C47.9998 144.073 47.9732 143.203 47.9964 142.07C48.0564 139.133 48.4365 134.946 49.0827 129.775C50.3715 119.462 52.6744 105.575 55.3743 90.6894C60.7711 60.9353 67.718 27.3867 71.194 10.8915C72.1683 6.26781 76.2432 2.98801 81.0087 2.98801ZM247.971 143.107C247.97 143.105 247.974 143.079 247.984 143.035C247.978 143.086 247.972 143.108 247.971 143.107Z" fill="#352F2C" stroke="#383434" stroke-width="5.97601"/>
<path d="M39.9766 29.928C50.2271 15.3615 56.7841 12 70.9771 12L64.2541 45.2416L54 96.7799L46.5 141.5H7C7 141.5 12.711 86.3267 14.952 77.7362C17.193 69.1456 31.0402 42.6271 39.9766 29.928Z" fill="#FFDD65" stroke="#383434" stroke-width="5.97601" stroke-linecap="round" stroke-linejoin="round"/>
<path d="M255.011 29.9592C244.757 15.3673 238.198 12 224 12L230.725 45.2993L240.983 96.9272L248.485 141.725H287.999C287.999 141.725 282.286 86.4558 280.044 77.8504C277.802 69.2449 263.95 42.6803 255.011 29.9592Z" fill="#FFDD65" stroke="#383434" stroke-width="5.97601" stroke-linecap="round" stroke-linejoin="round"/>
<circle cx="103.059" cy="13.252" r="7.45508" fill="white"/>
<circle cx="191.917" cy="13.252" r="7.45508" fill="white"/>
<circle cx="108.172" cy="26.8504" r="7.60529" fill="white"/>
<circle cx="185.934" cy="26.8504" r="7.60529" fill="white"/>
<circle cx="118.506" cy="39.6934" r="9.08839" fill="white"/>
<circle cx="175.374" cy="39.6934" r="9.08839" fill="white"/>
<circle cx="127.594" cy="56.5386" r="10.749" fill="white"/>
<circle cx="166.286" cy="56.5386" r="10.749" fill="white"/>
<circle cx="146.694" cy="70.1244" r="13.0326" fill="white"/>
</svg>
