<svg width="296" height="143" viewBox="0 0 296 143" fill="none" xmlns="http://www.w3.org/2000/svg">
<path d="M71.5933 11.2796C72.5453 6.5768 76.6791 3.19601 81.4773 3.19601H214.271C219.069 3.19601 223.203 6.57679 224.155 11.2796L262.415 200.271C263.679 206.518 258.904 212.356 252.531 212.356H43.2175C36.8441 212.356 32.0689 206.518 33.3335 200.271L71.5933 11.2796Z" fill="#C4C4C4" stroke="#383434" stroke-width="5.97601"/>
<path d="M255.234 30.136C244.984 15.5695 238.427 12.208 224.234 12.208L230.957 45.4496L241.211 96.9879L257.849 176.922C266.215 164.97 280.259 161.235 292.211 169.825C292.211 169.825 282.5 86.5347 280.259 77.9442C278.018 69.3536 264.171 42.8351 255.234 30.136Z" fill="#FFDD65" stroke="#383434" stroke-width="5.97601" stroke-linecap="round" stroke-linejoin="round"/>
<path d="M40.21 30.136C50.4605 15.5695 57.0175 12.208 71.2105 12.208L64.4875 45.4496L54.2334 96.9879L37.5955 176.922C29.2291 164.97 15.1854 161.235 3.2334 169.825C3.2334 169.825 12.9444 86.5347 15.1854 77.9442C17.4264 69.3536 31.2736 42.8351 40.21 30.136Z" fill="#FFDD65" stroke="#383434" stroke-width="5.97601" stroke-linecap="round" stroke-linejoin="round"/>
</svg>
