<svg width="300" height="217" viewBox="0 0 300 217" fill="none" xmlns="http://www.w3.org/2000/svg">
<path d="M81.3385 3.98801H214.726C219.28 3.98801 223.269 7.0404 224.46 11.4363L256.65 130.291C258.386 136.702 253.558 143.012 246.916 143.012H155.5H58.344C52.0061 143.012 47.2392 137.235 48.4431 131.012L71.4375 12.157C72.3551 7.41403 76.5075 3.98801 81.3385 3.98801Z" fill="#D0AB74" stroke="#383434" stroke-width="5.97601"/>
<path d="M101.729 2.66797C104.518 5.78277 128.522 9.01233 147.549 9.01221C166.576 9.01208 190.581 5.78266 193.37 2.66797" stroke="#383434" stroke-width="5"/>
<path d="M86.6846 6.9751C86.6846 11.4195 110.089 26.2967 148.736 26.2967C187.383 26.2967 208.657 10.6199 208.657 6.97512" stroke="#86765E" stroke-width="5"/>
<path d="M39.9766 30.928C50.2271 16.3615 56.7841 13 70.9771 13L64.2541 46.2416L54 97.7799L46 146H7C7 146 12.711 87.3267 14.952 78.7362C17.193 70.1456 31.0402 43.6271 39.9766 30.928Z" fill="#D0AB74" stroke="#383434" stroke-width="5.97601" stroke-linecap="round" stroke-linejoin="round"/>
<path d="M256.22 29.1136C245.294 15.2755 238.721 12.3654 225 13.3249L233.818 46.031L247.326 96.7506L258.424 144.312L296.127 141.676C296.127 141.676 286.513 83.5317 283.747 75.1136C280.981 66.6955 265.745 41.1776 256.22 29.1136Z" fill="#D0AB74" stroke="#383434" stroke-width="5.97601" stroke-linecap="round" stroke-linejoin="round"/>
<path d="M100.487 51.1069L78.3604 86.9801L100.487 121.1L121.877 86.9801L100.487 51.1069Z" fill="#67430E"/>
<path d="M151.856 51.1069L129.729 86.9801L151.856 121.1L173.246 86.9801L151.856 51.1069Z" fill="#86765E"/>
<path d="M202.803 51.1069L180.677 86.9801L202.803 121.1L224.193 86.9801L202.803 51.1069Z" fill="#67430E"/>
<path d="M67.9778 114.538L122.684 60.8325L182.862 114.538L224.569 60.8325" stroke="#383434" stroke-width="2" stroke-dasharray="2 2"/>
<path d="M72.335 60.8325L123.502 114.538L179.519 59.1091L231.349 112.437" stroke="#383434" stroke-width="2" stroke-dasharray="2 2"/>
</svg>
