<svg width="156" height="38" viewBox="0 0 156 38" fill="none" xmlns="http://www.w3.org/2000/svg">
<path fill-rule="evenodd" clip-rule="evenodd" d="M126.642 10.6944C125.997 13.8184 124.862 17.7968 123.362 21.3665C122.444 23.5506 121.433 25.4782 120.381 26.9362C119.289 28.4509 118.375 29.1487 117.762 29.3741C112.28 31.3885 105.265 32.603 94.463 31.6499C93.3818 31.5545 92.253 30.9494 91.084 29.5491C89.9002 28.1311 88.8514 26.091 88.007 23.6528C86.4946 19.2859 85.8378 14.2361 85.9205 10.6716C91.1425 6.71608 99.4923 5.52312 108.063 6.16256C112.512 6.49446 116.815 7.30719 120.419 8.34237C123.012 9.08746 125.126 9.91407 126.642 10.6944ZM130.532 5.99091C128.338 4.69014 125.365 3.52056 122.075 2.57558C118.082 1.4284 113.373 0.542043 108.51 0.179188C99.9962 -0.455962 90.3208 0.468154 83.3569 5.13337C83.2121 5.07363 83.0576 5.01489 82.8928 4.95796C81.8038 4.58181 80.2912 4.29263 78.2165 4.29268C76.1419 4.29273 74.6294 4.58191 73.5405 4.958C73.2652 5.05306 73.0186 5.15318 72.7983 5.2546C65.8219 0.484169 56.0532 -0.461425 47.4664 0.179188C42.6027 0.542043 37.8944 1.42841 33.9009 2.57558C30.5958 3.525 27.6106 4.70115 25.4133 6.00928L3.99705 1.57121C2.37466 1.235 0.786914 2.27765 0.450708 3.90004C0.114503 5.52242 1.15716 7.11018 2.77954 7.44638L23.4202 11.7237C24.1351 15.2466 25.3969 19.678 27.0828 23.6906C28.1012 26.1146 29.3172 28.4892 30.7281 30.4457C32.0981 32.3455 33.8817 34.1744 36.1447 35.0059C42.5854 37.3726 50.5063 38.6444 62.0405 37.6267C65.1963 37.3483 67.6689 35.5854 69.4981 33.3942C71.3126 31.2207 72.6588 28.4458 73.6388 25.6163C75.3777 20.5951 76.1596 14.8184 76.0524 10.4811C76.5201 10.3834 77.222 10.2927 78.2167 10.2927C78.9296 10.2927 79.4921 10.3393 79.9258 10.4016C79.807 14.7477 80.5877 20.5643 82.3374 25.6163C83.3173 28.4458 84.6635 31.2207 86.478 33.3942C88.3072 35.5854 90.7798 37.3483 93.9356 37.6267C105.47 38.6444 113.391 37.3726 119.831 35.0059C122.094 34.1744 123.878 32.3455 125.248 30.4457C126.659 28.4892 127.875 26.1146 128.893 23.6906C130.586 19.662 131.851 15.2113 132.564 11.6816L152.756 7.08212C154.371 6.71413 155.382 5.10621 155.014 3.49074C154.646 1.87527 153.038 0.863991 151.423 1.23199L130.532 5.99091ZM29.3338 10.6944C29.9788 13.8184 31.1145 17.7968 32.6143 21.3665C33.532 23.5506 34.5433 25.4782 35.5947 26.9362C36.6869 28.4509 37.6007 29.1487 38.2142 29.3741C43.6962 31.3885 50.7113 32.603 61.5131 31.6499C62.5943 31.5545 63.7232 30.9494 64.8922 29.5491C66.0759 28.1311 67.1247 26.091 67.9692 23.6528C69.4815 19.2859 70.1384 14.2361 70.0556 10.6716C64.8337 6.71608 56.4838 5.52312 47.9128 6.16256C43.464 6.49446 39.1611 7.30719 35.5574 8.34237C32.9636 9.08746 30.8505 9.91407 29.3338 10.6944Z" fill="#383434"/>
</svg>
