<svg width="91" height="28" viewBox="0 0 91 28" fill="none" xmlns="http://www.w3.org/2000/svg">
<ellipse cx="22.6437" cy="13.8179" rx="9.30967" ry="11.5" fill="#383434"/>
<ellipse cx="22.9105" cy="9.00866" rx="3.95349" ry="3.95349" fill="white"/>
<path d="M1.63574 4.98995C4.9217 7.48275 7.66695 7.62785 10.299 6.87103M10.299 6.87103C9.56749 7.03033 7.27132 5.95083 5.93302 4.06364M10.299 6.87103C11.3437 6.57064 12.3706 6.12816 13.4064 5.634M13.4064 5.634C15.6305 4.57294 17.8956 3.2736 20.4664 2.63097C25.894 1.2742 29.8576 5.634 31.5985 7.68816C31.9866 8.14612 32.9444 9.14863 33.9785 9.61483C29.4317 9.61483 27.6633 3.51663 22.751 3.51663C17.8386 3.51663 16.0278 7.27319 11.9997 8.02206C10.2631 8.34492 7.72295 7.5745 5.93302 7.09442M13.4064 5.634C12.4288 5.81913 10.299 4.98995 9.32454 3.51663" stroke="#383434" stroke-width="2.33195" stroke-linecap="round" stroke-linejoin="round"/>
<ellipse rx="9.30967" ry="11.5" transform="matrix(-1 0 0 1 68.0644 13.3208)" fill="#383434"/>
<ellipse rx="3.95349" ry="3.95349" transform="matrix(-1 0 0 1 67.7965 8.51208)" fill="white"/>
<path d="M89.0713 4.49288C85.7853 6.98568 83.0401 7.13078 80.408 6.37396M80.408 6.37396C81.1395 6.53326 83.4357 5.45376 84.774 3.56657M80.408 6.37396C79.3633 6.07357 78.3364 5.63109 77.3006 5.13693M77.3006 5.13693C75.0766 4.07587 72.8115 2.77653 70.2407 2.1339C64.813 0.777125 60.8494 5.13693 59.1086 7.19109C58.7205 7.64905 57.7627 8.65156 56.7286 9.11776C61.2753 9.11776 63.0437 3.01956 67.9561 3.01956C72.8684 3.01956 74.6792 6.77612 78.7074 7.52499C80.444 7.84785 82.9841 7.07743 84.774 6.59735M77.3006 5.13693C78.2782 5.32206 80.408 4.49288 81.3825 3.01956" stroke="#383434" stroke-width="2.38162" stroke-linecap="round" stroke-linejoin="round"/>
</svg>
