<svg width="158" height="188" viewBox="0 0 158 188" fill="none" xmlns="http://www.w3.org/2000/svg">
<rect x="49.9622" y="3.38412" width="57.5429" height="50.733" rx="7.16429" fill="#FFDD65" stroke="#383434" stroke-width="6.74286"/>
<path d="M33.1048 132.964C33.1048 129.008 36.3124 125.8 40.2691 125.8H117.198C121.154 125.8 124.362 129.008 124.362 132.964V171.73C124.362 175.018 122.136 177.844 119.023 178.566C89.791 185.341 69.9461 185.354 38.5597 178.476C35.3854 177.78 33.1048 174.924 33.1048 171.598V132.964Z" fill="#FFDD65" stroke="#383434" stroke-width="6.74286"/>
<path d="M3.60483 51.9058C3.60483 37.4754 15.303 25.7772 29.7334 25.7772H127.733C142.164 25.7772 153.862 37.4754 153.862 51.9058V131.271C153.862 143.735 145.097 154.46 132.962 156.442C93.4132 162.901 64.1736 162.772 24.6264 156.385C12.4331 154.416 3.60483 143.664 3.60483 131.156V51.9058Z" fill="#FFDD65" stroke="#383434" stroke-width="6.74286"/>
<path d="M3.60483 51.9058C3.60483 37.4754 15.303 25.7772 29.7334 25.7772H127.733C142.164 25.7772 153.862 37.4754 153.862 51.9058V131.271C153.862 143.735 145.097 154.46 132.962 156.442C93.4132 162.901 64.1736 162.772 24.6264 156.385C12.4331 154.416 3.60483 143.664 3.60483 131.156V51.9058Z" stroke="#383434" stroke-width="6.74286"/>
</svg>
