<svg width="258" height="226" viewBox="0 0 258 226" fill="none" xmlns="http://www.w3.org/2000/svg">
<path d="M51.2455 152.475V177.856C45.737 170.291 34.3038 154.307 32.6383 150.889C30.9728 147.472 31.9443 141.631 32.6383 139.137C30.7878 138.331 26.4622 134.298 23.9639 124.62C21.4657 114.942 26.3927 106.23 29.1685 103.084C28.3358 95.0001 33.9107 88.4953 36.8022 86.2533C36.8022 70.9513 48.137 65.3603 53.8043 64.4775L55.0692 54.4569L55.2123 54.0124C56.9192 48.7112 59.7929 39.7865 61.6889 35.0975C63.3808 30.913 67.6409 33.873 69.9414 35.0975C69.3631 33.7149 70.1819 30.3967 74.6232 28.1848C79.0646 25.9729 86.1893 27.2632 89.1964 28.1848C89.6591 25.7652 91.2783 20.3037 94.0542 17.8151C96.83 15.3264 107.471 16.7781 112.444 17.8151C112.791 14.3586 118.69 8.48302 124.611 8.48302C129.348 8.48302 132.584 14.7044 133.61 17.8151L142.802 18.4892C146.787 18.4892 149.852 15.888 151.495 14.4C154.151 11.9946 156.618 8.48302 161.501 6.15825C173.992 2.01048 175.363 19.8893 175.248 28.1848C185.241 22.1014 192.366 37.1717 194.679 45.4673C203.284 45.1908 213.3 64.017 217.233 73.4647C232.505 81.0689 230.071 94.8524 234.582 113.19C239.092 131.527 220.186 145.4 221.166 155.161C221.949 162.97 211.171 180.669 205.684 188.543L207.644 155.161C206.468 155.096 203.685 155.005 201.961 155.161C199.805 155.356 197.453 141.496 192.554 141.496C187.655 141.496 188.635 122.95 188.243 113.19C187.851 103.429 171.977 104.795 166.686 105.381C161.395 105.967 149.171 97.5895 147.044 96.4336C144.917 95.2777 139.888 97.7821 136.408 97.5895C133.623 97.4354 127.383 95.7006 124.611 94.8525C123.339 95.9958 119.694 98.4197 115.287 98.9685C110.88 99.5173 104.269 96.4531 101.515 94.8525C96.2355 97.3678 83.8862 102.536 76.7245 103.084C69.5629 103.633 66.8543 107.886 66.3952 109.944C62.9521 141.499 56.7545 138.069 56.7545 142.185C56.7545 145.477 53.0818 150.417 51.2455 152.475Z" fill="#744C10"/>
<path d="M56.7545 142.185C56.7545 145.477 53.0818 150.417 51.2455 152.475V177.856C45.737 170.291 34.3038 154.307 32.6383 150.889C30.9728 147.472 31.9443 141.631 32.6383 139.137C30.7878 138.331 26.4622 134.298 23.9639 124.62C21.4657 114.942 26.3927 106.23 29.1685 103.084C28.3358 95.0001 33.9107 88.4953 36.8022 86.2533M56.7545 142.185C56.7545 138.069 62.9521 141.499 66.3952 109.944C66.8543 107.886 69.5629 103.633 76.7245 103.084C83.8862 102.536 96.2355 97.3678 101.515 94.8525M56.7545 142.185C52.1735 138.672 43.0832 128.578 43.3699 116.298M101.515 94.8525C104.269 96.4531 110.88 99.5173 115.287 98.9685C119.694 98.4197 123.339 95.9958 124.611 94.8525M101.515 94.8525C107.217 89.7738 118.622 77.1005 118.622 67.0367M124.611 94.8525C127.383 95.7006 133.623 97.4354 136.408 97.5895C139.888 97.7821 144.917 95.2777 147.044 96.4336M124.611 94.8525C130.605 91.173 143.483 82.2435 147.044 75.9609M147.044 96.4336C149.171 97.5895 161.395 105.967 166.686 105.381M147.044 96.4336C154.895 93.536 171.527 85.6704 175.248 77.3887M166.686 105.381C171.977 104.795 187.851 103.429 188.243 113.19C188.635 122.95 187.655 141.496 192.554 141.496M166.686 105.381C173.092 103.186 186.781 97.0844 190.291 90.2395M192.554 141.496C197.453 141.496 199.805 155.356 201.961 155.161C203.685 155.005 206.468 155.096 207.644 155.161M192.554 141.496C198.891 139.137 200.393 125.951 201.961 116.298M207.644 155.161L205.684 188.543C211.171 180.669 221.949 162.97 221.166 155.161C220.186 145.4 239.092 131.527 234.582 113.19C230.071 94.8524 232.505 81.0689 217.233 73.4647M207.644 155.161C210.84 151.607 217.233 141.857 217.233 131.291M217.233 73.4647C213.3 64.017 203.284 45.1908 194.679 45.4673M217.233 73.4647C217.229 76.4929 215.679 83.2778 214.3 86.2533M194.679 45.4673C192.366 37.1717 185.241 22.1014 175.248 28.1848M194.679 45.4673C194.461 47.5876 193.73 52.3539 192.554 54.4569M175.248 28.1848C175.363 19.8893 173.992 2.01048 161.501 6.15825C156.618 8.48302 154.151 11.9946 151.495 14.4C149.852 15.888 146.787 18.4892 142.802 18.4892L133.61 17.8151M175.248 28.1848C175.548 30.5377 175.517 35.9114 172.99 38.5827M133.61 17.8151C132.584 14.7044 129.348 8.48302 124.611 8.48302C118.69 8.48302 112.791 14.3586 112.444 17.8151M133.61 17.8151C134.543 19.8171 136.408 24.6938 136.408 28.1848M112.444 17.8151C107.471 16.7781 96.83 15.3264 94.0542 17.8151C91.2783 20.3037 89.6591 25.7652 89.1964 28.1848M112.444 17.8151C110.401 20.7149 106.717 27.7212 108.333 32.5485M89.1964 28.1848C86.1893 27.2632 79.0646 25.9729 74.6232 28.1848C70.1819 30.3967 69.3631 33.7149 69.9414 35.0975M89.1964 28.1848C87.9162 30.0225 85.7399 34.6748 87.2761 38.5827M69.9414 35.0975C67.6409 33.873 63.3808 30.913 61.6889 35.0975C59.7389 39.9202 56.7545 49.2237 55.0692 54.4569L53.8043 64.4775M69.9414 35.0975C69.4437 37.1953 71.0026 41.5175 72.1972 43.6735M53.8043 64.4775C48.137 65.3603 36.8022 70.9513 36.8022 86.2533M53.8043 64.4775C51.115 68.2015 49.3971 85.4122 53.8043 90.2395M36.8022 86.2533C37.1838 88.2074 40.8794 96.7789 43.3699 98.9685" stroke="#422B09" stroke-width="7" stroke-linecap="round" stroke-linejoin="round"/>
</svg>
