<svg width="257" height="342" viewBox="0 0 257 342" fill="none" xmlns="http://www.w3.org/2000/svg">
<path d="M102.853 102.505C114.655 109.085 136.76 113.237 155.043 94.9661C155.043 94.9661 175.653 95.6717 178.28 107.194C178.28 119.727 189.161 124.145 194.002 135.148C198.844 146.15 188.117 147.342 194.002 163.004C198.156 174.056 188.117 186.891 188.117 186.891C188.117 186.891 167.922 208.633 169.442 226.793C170.961 244.953 189.108 247.772 178.28 268.379C167.452 288.985 185.471 299.324 164.51 323.632C167.699 333.22 185.151 326.997 194.002 323.632C209.379 317.786 228.134 291.804 223.595 268.379C219.055 244.953 242.484 233.207 231.766 202.261C224.52 181.338 234.21 167.304 223.595 151.231C216.477 140.454 218.02 119.979 209.295 94.9661C202.314 74.9556 178.28 43.7558 157.888 52.9709C150.563 38.4753 123.655 38.4757 113.688 38.4758L113.592 38.4758C103.703 38.4758 74.4929 38.4758 67.5125 58.3798C63.3645 70.2074 58.2808 62.3445 47.228 77.4686C36.1753 92.5928 38.02 104.597 35.6932 121.466C34.2644 131.825 15.3818 152.199 15.3818 167.304C15.3818 182.41 21.8724 186.883 20.2711 202.261C19.0525 213.965 15.3827 220.413 15.3823 234.531C15.3819 248.649 24.1842 259.479 30.661 268.379C36.9481 277.017 36.75 284.589 40.7544 295.268C51.2249 323.19 94.7096 340.134 102.853 337.226C110.997 334.318 78.5985 311.012 78.5985 286.109C78.5985 277.52 89.3341 263.094 89.3341 245.644C89.3341 227.483 73.1227 209.705 67.5125 202.261C55.6507 186.524 63.2612 180.203 67.5125 167.304C71.7638 154.406 56.9292 144.584 63.2612 135.148C67.7758 128.42 71.3537 125.901 71.3537 114.203C71.3537 102.505 89.3341 94.9661 102.853 102.505Z" fill="#F0B84B"/>
<path d="M155.043 94.9661C136.76 113.237 114.655 109.085 102.853 102.505C89.3341 94.9661 71.3537 102.505 71.3537 114.203C71.3537 125.901 67.7758 128.42 63.2612 135.148C56.9292 144.584 71.7638 154.406 67.5125 167.304C63.2612 180.203 55.6507 186.524 67.5125 202.261C73.1228 209.705 89.3341 227.483 89.3341 245.644C89.3341 263.094 78.5985 277.52 78.5985 286.109C78.5985 311.012 110.997 334.317 102.853 337.226C94.7097 340.134 51.2249 323.19 40.7544 295.268C36.75 284.589 36.9481 277.017 30.661 268.379C24.1842 259.479 15.3819 248.649 15.3823 234.531C15.3827 220.413 19.0525 213.965 20.2711 202.261C21.8724 186.883 15.3818 182.41 15.3818 167.304C15.3818 152.199 34.2644 131.825 35.6932 121.466C38.02 104.597 36.1753 92.5928 47.228 77.4686C58.2808 62.3445 63.3645 70.2074 67.5125 58.3798C74.4929 38.4758 103.703 38.4758 113.592 38.4758C123.481 38.4758 150.539 38.4285 157.888 52.9709M155.043 94.9661C155.043 94.9661 175.653 95.6717 178.28 107.194C178.28 119.727 189.161 124.145 194.002 135.148C198.844 146.15 188.117 147.342 194.002 163.004C198.156 174.056 188.117 186.891 188.117 186.891C188.117 186.891 167.922 208.633 169.442 226.793C170.961 244.953 189.108 247.772 178.28 268.379C167.452 288.985 185.471 299.324 164.51 323.632C167.699 333.22 185.151 326.997 194.002 323.632C209.379 317.786 228.134 291.804 223.595 268.379C219.055 244.953 242.484 233.207 231.766 202.261C224.52 181.338 234.21 167.304 223.595 151.231C216.477 140.454 218.02 119.979 209.295 94.9661C202.314 74.9556 178.28 43.7558 157.888 52.9709M155.043 94.9661C156.925 93.086 164.925 83.0825 151.311 78.8298C148.301 77.4123 140.778 75.4725 131.684 77.4686M157.888 52.9709C161.325 56.0431 164.916 62.0561 164.51 65.7135M42.6932 255.15C44.1974 269.332 61.3566 281.901 63.9292 299.053M65.2612 230.531C68.0954 233.294 72.9135 240.606 69.5125 247.755M125.727 58.3798C115.276 56.4523 93.3662 55.2204 89.3341 65.7135M202.06 260.866C213.616 288.052 192.211 302.973 188.117 311.454M178.28 84.24C183.521 87.0964 194.002 95.6863 194.002 107.194M42.6932 147.678C38.3329 155.076 33.8461 162.853 35.6932 173.214C37.8395 185.251 45.8156 196.032 40.7544 202.261M202.06 194.522C195.45 199.983 183.408 213.268 188.117 222.718M217.817 213.31C222.087 221.246 220.719 230.531 213.331 234.531" stroke="#B27A0D" stroke-width="7" stroke-linecap="round" stroke-linejoin="round"/>
</svg>
